<svg xmlns="http://www.w3.org/2000/svg" width="135" height="40" viewBox="0 0 135 40">
  <defs>
    <linearGradient id="grad" x1="0%" y1="0%" x2="0%" y2="100%">
      <stop offset="0%" style="stop-color:#000000;stop-opacity:1" />
      <stop offset="100%" style="stop-color:#000000;stop-opacity:1" />
    </linearGradient>
  </defs>
  <rect width="135" height="40" rx="6" fill="url(#grad)"/>
  <g fill="white">
    <!-- Apple Logo -->
    <path d="M28.5 20.5c0-3.5 2.9-5.3 3-5.4-1.6-2.4-4.2-2.7-5.1-2.7-2.2-.2-4.2 1.3-5.3 1.3-1.1 0-2.8-1.3-4.6-1.2-2.4 0-4.6 1.4-5.8 3.5-2.5 4.3-.6 10.7 1.8 14.2 1.2 1.7 2.6 3.6 4.4 3.6 1.8-.1 2.5-1.2 4.6-1.2 2.2 0 2.8 1.2 4.6 1.1 1.9 0 3.1-1.8 4.3-3.5.9-1.4 1.3-2.1 2-3.5-2.2-.8-3.9-3-3.9-5.2z"/>
    <path d="M25.2 10.5c1-.1 2-1.3 1.8-3.3-1.7.1-3.8 1.1-5 2.5-.9 1.1-1.7 2.8-1.5 4.5 1.8.1 3.5-1 4.7-2.3.1-.3.1-.9 0-1.4z"/>
    <!-- Text -->
    <text x="45" y="14" font-family="Arial, sans-serif" font-size="8" font-weight="400">Download on the</text>
    <text x="45" y="27" font-family="Arial, sans-serif" font-size="16" font-weight="600">App Store</text>
  </g>
</svg>
